# xmcd
#
# Track frame offsets:
#	150
#	15000
#	28875
#	47175
#	64455
#	78705
#	94605
#	117420
#	132795
#	147570
#
# Disc length: 2160 seconds
#
# Revision: 1
# Processed by: cddbd v1.5.2PL0 Copyright (c) Steve Scherf et al.
# Submitted via: audiograbber 1.83.01
#
DISCID=8a086e0a
DTITLE=Earl Thomas Conley - Greatest Hits 
DYEAR=1985
DGENRE=Country
TTITLE0=Nobody Falls Like A Fool
TTITLE1=Holding Her And Loving You
TTITLE2=Somewhere Between Right And Wrong
TTITLE3=Angle In Desguies
TTITLE4=Fire And Smoke
TTITLE5=Once In A Blue Moon
TTITLE6=I Have Loved You Girl (But Not Like This Before)
TTITLE7=Don't Make It Easy For Me
TTITLE8=Your Love's On The Line
TTITLE9=Silent Treatment
EXTD=
EXTT0=
EXTT1=
EXTT2=
EXTT3=
EXTT4=
EXTT5=
EXTT6=
EXTT7=
EXTT8=
EXTT9=
PLAYORDER=
